PathFileType	4	(X/Y/Z)	Walk5.trc
DataRate	CameraRate	NumFrames	NumMarkers	Units	OrigDataRate	OrigDataStartFrame	OrigNumFrames
200.000000	200.000000	4	61	mm	200.000000	442	775
Frame#	Times		RCAR		LTH3		RTH2		LBHD		LCAR		LUA1		LFA1		RTB3		LWRU		LElbow		RToe		RTB2		RMT5		C7		RMT1		RBHD		LWRR		RMMAL		RTB1		RWRU		RFA1		LTH2		RTB4		RLFC		LTH4		RPSI		RLMAL		T10		LASI		RBack		RTH1		STRN		LPSI		LElbowM		LLFC		RElbow		LTB4		RUA1		LTB3		LACR1		LCAL		RTH3		RCAL		RElbowM		LTB1		LToe		CLAV		LMFC		LTB2		RASI		LFHD		RACR1		RTH4		LMT5		RFHD		RWRR		LMMAL		RMFC		LLMAL		LMT1		LTH1
			X1	Y1	Z1	X2	Y2	Z2	X3	Y3	Z3	X4	Y4	Z4	X5	Y5	Z5	X6	Y6	Z6	X7	Y7	Z7	X8	Y8	Z8	X9	Y9	Z9	X10	Y10	Z10	X11	Y11	Z11	X12	Y12	Z12	X13	Y13	Z13	X14	Y14	Z14	X15	Y15	Z15	X16	Y16	Z16	X17	Y17	Z17	X18	Y18	Z18	X19	Y19	Z19	X20	Y20	Z20	X21	Y21	Z21	X22	Y22	Z22	X23	Y23	Z23	X24	Y24	Z24	X25	Y25	Z25	X26	Y26	Z26	X27	Y27	Z27	X28	Y28	Z28	X29	Y29	Z29	X30	Y30	Z30	X31	Y31	Z31	X32	Y32	Z32	X33	Y33	Z33	X34	Y34	Z34	X35	Y35	Z35	X36	Y36	Z36	X37	Y37	Z37	X38	Y38	Z38	X39	Y39	Z39	X40	Y40	Z40	X41	Y41	Z41	X42	Y42	Z42	X43	Y43	Z43	X44	Y44	Z44	X45	Y45	Z45	X46	Y46	Z46	X47	Y47	Z47	X48	Y48	Z48	X49	Y49	Z49	X50	Y50	Z50	X51	Y51	Z51	X52	Y52	Z52	X53	Y53	Z53	X54	Y54	Z54	X55	Y55	Z55	X56	Y56	Z56	X57	Y57	Z57	X58	Y58	Z58	X59	Y59	Z59	X60	Y60	Z60	X61	Y61	Z61

442	2.21	-459.15	915.75	259.83	-651.02	602.79	-185.48	-723.6	677.78	134.07	-765.12	1625.7	-95.667	-788.67	792.5	-285.43	-801.8	1280.7	-279.09	-860.57	979.68	-289.88	-930.9	185.8	43.967	-849.5	845.78	-274.18	-855.27	1131.2	-288.08	-826.26	23.826	69.106	-919.46	270.55	116.48	-934.69	21.552	118.26	-784.8	1499.5	-22.107	-879.15	33.368	43.419	-752.61	1632.3	45.519	-776.13	847.92	-236.31	-978.42	97.829	1.0585	-853.9	355	64.148	-526.79	906.34	267.13	-615.96	1007.8	293.18	-613.1	712.59	-169.31	-891.55	269.77	52.423	-864.77	491.77	137.13	-675.19	690.97	-200.8	-891.14	1014.4	31.211	-1016.7	81.568	78.429	-890.6	1276.9	-15.225	-683.4	1018.4	-152.04	-851.71	1411.9	117.35	-764.35	786.54	171.95	-608.65	1237.8	-32.121	-894.55	1006.3	-45.864	-880.79	1131.3	-214.61	-627.46	508.76	-169.66	-707.16	1136.5	294.14	-515.47	308.13	-101.07	-700.76	1289.7	240.16	-493.99	214.12	-104.13	-723.47	1450.9	-195.41	-539.78	18.795	-98.47	-819.63	605.42	148.64	-1076.1	55.415	27.257	-744.41	1108.8	225.26	-535.8	395.77	-100.68	-306.41	96.03	-112.75	-654.29	1412	-29.047	-619.04	513.73	-35.962	-544.41	303.39	-170.77	-674.8	1020.1	134.32	-585.86	1672.9	-70.237	-699.06	1453.7	131.55	-789.49	694.15	163.44	-385.98	51.267	-172.89	-580.06	1675.1	5.6944	-491.98	946.5	209.71	-475.53	105.05	-66.167	-849.99	507.37	6.0324	-499.23	75.332	-145.48	-349.09	78.058	-94.933	-697.06	782.06	-208.62
443	2.215	-452.94	916.19	259.02	-645.22	602.38	-185.31	-718.92	677.17	134.16	-759.64	1625	-96.448	-784.52	791.4	-285.9	-796.06	1279.9	-279.87	-855.47	979.01	-290.69	-929.47	186.06	44.031	-845.07	845.08	-275.09	-849.58	1130.4	-288.84	-826.25	23.823	69.125	-917.27	270.8	116.39	-934.61	21.632	118.18	-779.37	1498.8	-22.957	-879.02	33.354	43.501	-747.21	1631.6	44.747	-771.92	846.8	-236.77	-977.24	98.762	0.89436	-850.9	354.64	64.019	-520.54	906.43	266.25	-610.12	1007.5	292.46	-607.47	712.33	-169.78	-889.34	269.72	52.364	-860.83	491.6	136.95	-669.57	690.44	-201.08	-885.57	1013.7	30.368	-1016.2	82.654	78.512	-885.13	1276.3	-16.1	-677.56	1017.6	-152.36	-846.42	1411.3	116.48	-759.52	786.06	171.67	-603.12	1237.2	-32.697	-888.94	1005.6	-46.666	-875.33	1130.7	-215.46	-621.72	508.09	-169.46	-701.76	1135.9	293.54	-510.3	307.27	-100.49	-695.47	1289.2	239.48	-489.17	213.21	-103.41	-717.86	1450.2	-196.18	-536.39	18.91	-97.629	-815.2	605.09	148.42	-1075.8	57.061	27.361	-738.96	1108.2	224.66	-530.31	394.95	-100.25	-302.05	93.463	-112.24	-648.83	1411.4	-29.74	-613.02	513.49	-35.823	-539.39	302.52	-170.07	-668.49	1018.3	134.2	-580.41	1672.3	-70.903	-693.72	1453	130.83	-784.88	693.74	163.17	-382.52	49.669	-172.16	-574.66	1674.5	5.0539	-485.89	946.87	208.91	-471.16	104.12	-65.308	-845.45	506.97	5.899	-495.17	74.62	-144.59	-345.05	76.068	-94.422	-691.56	781.48	-209.26
444	2.22	-446.88	916.55	258.24	-639.21	602.12	-185.12	-714.12	676.58	134.24	-754.15	1624.4	-97.271	-780.21	790.33	-286.41	-790.27	1279	-280.66	-850.26	978.34	-291.55	-927.98	186.37	44.12	-840.5	844.39	-276.05	-843.83	1129.7	-289.64	-826.24	23.819	69.139	-914.98	271.08	116.33	-934.5	21.726	118.09	-773.92	1498.2	-23.843	-878.89	33.341	43.585	-741.8	1631	43.931	-767.58	845.71	-237.26	-976.09	99.716	0.80909	-847.77	354.26	63.9	-514.45	906.47	265.41	-604.38	1007.2	291.73	-601.64	712.22	-170.3	-887.03	269.7	52.315	-856.73	491.41	136.79	-663.78	690.05	-201.33	-879.97	1013.1	29.537	-1015.6	83.821	78.635	-879.65	1275.6	-16.985	-671.71	1016.9	-152.69	-841.13	1410.7	115.58	-754.6	785.58	171.37	-597.57	1236.6	-33.295	-883.31	1005	-47.456	-869.8	1130	-216.35	-615.84	507.5	-169.32	-696.42	1135.4	292.9	-505.29	306.35	-99.951	-690.21	1288.6	238.77	-484.65	212.22	-102.73	-712.25	1449.4	-196.98	-533.66	19.107	-96.861	-810.64	604.76	148.19	-1075.5	58.827	27.498	-733.56	1107.5	224.01	-524.84	394.1	-99.844	-298.17	90.359	-111.78	-643.35	1410.8	-30.46	-606.81	513.27	-35.765	-534.51	301.64	-169.4	-662.11	1016.3	134.02	-574.95	1671.7	-71.604	-688.37	1452.5	130.08	-780.15	693.33	162.91	-379.68	47.781	-171.51	-569.25	1673.9	4.3805	-479.92	947.16	208.13	-467.27	103.06	-64.504	-840.75	506.55	5.7788	-491.64	73.861	-143.75	-341.55	73.669	-93.96	-685.92	781.01	-209.89
445	2.225	-440.96	916.83	257.5	-633.01	601.99	-184.92	-709.21	676.02	134.33	-748.65	1623.8	-98.138	-775.76	789.28	-286.94	-784.44	1278.2	-281.48	-844.94	977.68	-292.44	-926.41	186.72	44.237	-835.78	843.71	-277.05	-838	1128.9	-290.47	-826.24	23.812	69.149	-912.57	271.39	116.27	-934.38	21.837	118	-768.47	1497.6	-24.76	-878.75	33.328	43.672	-736.39	1630.4	43.072	-763.12	844.66	-237.77	-974.94	100.7	0.81886	-844.51	353.89	63.792	-508.51	906.48	264.59	-598.76	1006.9	291	-595.63	712.26	-170.86	-884.62	269.69	52.28	-852.46	491.22	136.63	-657.83	689.79	-201.55	-874.34	1012.5	28.724	-1014.9	85.078	78.796	-874.15	1275.1	-17.877	-665.85	1016.2	-153.04	-835.84	1410.2	114.63	-749.6	785.12	171.06	-592	1236.1	-33.916	-877.65	1004.4	-48.23	-864.2	1129.3	-217.29	-609.82	507.02	-169.22	-691.14	1134.8	292.22	-500.41	305.4	-99.447	-684.97	1288.1	238.04	-480.39	211.17	-102.1	-706.63	1448.7	-197.81	-531.5	19.383	-96.183	-805.93	604.42	147.97	-1075.1	60.72	27.668	-728.19	1106.9	223.29	-519.4	393.24	-99.467	-294.72	86.789	-111.36	-637.86	1410.2	-31.209	-600.42	513.09	-35.793	-529.73	300.78	-168.79	-655.69	1014.2	133.79	-569.49	1671.2	-72.337	-683.01	1451.9	129.32	-775.31	692.94	162.63	-377.38	45.656	-170.95	-563.83	1673.3	3.6747	-474.08	947.4	207.38	-463.8	101.93	-63.771	-835.89	506.12	5.673	-488.57	73.082	-142.98	-338.52	70.926	-93.545	-680.17	780.65	-210.47
